<svg width="371" height="440" viewBox="0 0 371 440" fill="none" xmlns="http://www.w3.org/2000/svg">
<g filter="url(#filter0_d_16_10)">
<path d="M366.893 216.312C366.893 335.33 280.708 431.812 174.393 431.812C68.0781 431.812 -18.1071 335.33 -18.1071 216.312C-18.1071 97.295 68.0781 0.812345 174.393 0.812345C280.708 0.812345 366.893 97.295 366.893 216.312Z" fill="url(#paint0_radial_16_10)" shape-rendering="crispEdges"/>
<path d="M366.393 216.312C366.393 335.108 280.38 431.312 174.393 431.312C68.4058 431.312 -17.6071 335.108 -17.6071 216.312C-17.6071 97.5166 68.4058 1.31235 174.393 1.31235C280.38 1.31235 366.393 97.5166 366.393 216.312Z" stroke="black" shape-rendering="crispEdges"/>
</g>
<defs>
<filter id="filter0_d_16_10" x="-22.1071" y="0.812256" width="393" height="439" filterUnits="userSpaceOnUse" color-interpolation-filters="sRGB">
<feFlood flood-opacity="0" result="BackgroundImageFix"/>
<feColorMatrix in="SourceAlpha" type="matrix" values="0 0 0 0 0 0 0 0 0 0 0 0 0 0 0 0 0 0 127 0" result="hardAlpha"/>
<feOffset dy="4"/>
<feGaussianBlur stdDeviation="2"/>
<feComposite in2="hardAlpha" operator="out"/>
<feColorMatrix type="matrix" values="0 0 0 0 0 0 0 0 0 0 0 0 0 0 0 0 0 0 0.25 0"/>
<feBlend mode="normal" in2="BackgroundImageFix" result="effect1_dropShadow_16_10"/>
<feBlend mode="normal" in="SourceGraphic" in2="effect1_dropShadow_16_10" result="shape"/>
</filter>
<radialGradient id="paint0_radial_16_10" cx="0" cy="0" r="1" gradientUnits="userSpaceOnUse" gradientTransform="translate(182.5 216.5) rotate(90) scale(215.5 192.5)">
<stop stop-color="#763CAC"/>
<stop offset="1" stop-color="#320F85" stop-opacity="0"/>
</radialGradient>
</defs>
</svg>
